<?xml version="1.0" encoding="UTF-8"?><svg width="64px" height="64px" viewBox="0 0 24 24" fill="none" xmlns="http://www.w3.org/2000/svg" color="#ffffff"><path d="M8 15H3.5C2.11929 15 1 13.8807 1 12.5V3.5C1 2.11929 2.11929 1 3.5 1H12.5C13.8807 1 15 2.11929 15 3.5V8" stroke="#ffffff" stroke-width="1" stroke-linecap="round" stroke-linejoin="round"></path><path d="M4 5H12M8 4V5M10 5C10 7 9 9 7 10M9 8C8 9 6 10 5 10" stroke="#ffffff" stroke-width="1" stroke-linecap="round" stroke-linejoin="round"></path><path d="M11.5 23H20.5C21.8807 23 23 21.8807 23 20.5V11.5C23 10.1193 21.8807 9 20.5 9H11.5C10.1193 9 9 10.1193 9 11.5V20.5C9 21.8807 10.1193 23 11.5 23Z" stroke="#ffffff" stroke-width="1" stroke-linecap="round" stroke-linejoin="round"></path><path d="M13 18L16 12L19 18M14 17H18" stroke="#ffffff" stroke-width="1" stroke-linecap="round" stroke-linejoin="round"></path></svg>